<?xml version="1.0" encoding="UTF-8" standalone="no"?>
<!-- Created with Inkscape (http://www.inkscape.org/) -->

<svg
   xmlns:osb="http://www.openswatchbook.org/uri/2009/osb"
   xmlns:dc="http://purl.org/dc/elements/1.1/"
   xmlns:cc="http://creativecommons.org/ns#"
   xmlns:rdf="http://www.w3.org/1999/02/22-rdf-syntax-ns#"
   xmlns:svg="http://www.w3.org/2000/svg"
   xmlns="http://www.w3.org/2000/svg"
   xmlns:xlink="http://www.w3.org/1999/xlink"
   xmlns:sodipodi="http://sodipodi.sourceforge.net/DTD/sodipodi-0.dtd"
   xmlns:inkscape="http://www.inkscape.org/namespaces/inkscape"
   width="660pt"
   height="560pt"
   id="svg2"
   sodipodi:version="0.32"
   inkscape:version="0.48.3.1 r9886"
   sodipodi:docname="f5notifier.svg"
   version="1.0">
  <defs
     id="defs4">
    <linearGradient
       id="linearGradient5220"
       osb:paint="solid">
      <stop
         style="stop-color:#000000;stop-opacity:1;"
         offset="0"
         id="stop5222" />
    </linearGradient>
  </defs>
  <sodipodi:namedview
     id="base"
     pagecolor="#ffffff"
     bordercolor="#666666"
     borderopacity="1.0"
     inkscape:pageopacity="0.0"
     inkscape:pageshadow="2"
     inkscape:zoom="0.49497475"
     inkscape:cx="-101.98975"
     inkscape:cy="427.67879"
     inkscape:document-units="px"
     inkscape:current-layer="g2329"
     inkscape:window-width="1280"
     inkscape:window-height="776"
     inkscape:window-x="0"
     inkscape:window-y="24"
     showgrid="false"
     inkscape:window-maximized="1" />
  <metadata
     id="metadata7">
    <rdf:RDF>
      <cc:Work
         rdf:about="">
        <dc:format>image/svg+xml</dc:format>
        <dc:type
           rdf:resource="http://purl.org/dc/dcmitype/StillImage" />
        <dc:date>17 November 2005</dc:date>
        <dc:title></dc:title>
        <dc:creator>
          <cc:Agent>
            <dc:title>Marco Colombo</dc:title>
          </cc:Agent>
        </dc:creator>
        <dc:language>en</dc:language>
        <dc:subject>
          <rdf:Bag>
            <rdf:li>Magnify</rdf:li>
            <rdf:li>glass</rdf:li>
            <rdf:li>document</rdf:li>
          </rdf:Bag>
        </dc:subject>
        <cc:license
           rdf:resource="http://web.resource.org/cc/PublicDomain" />
      </cc:Work>
      <cc:License
         rdf:about="http://web.resource.org/cc/PublicDomain">
        <cc:permits
           rdf:resource="http://web.resource.org/cc/Reproduction" />
        <cc:permits
           rdf:resource="http://web.resource.org/cc/Distribution" />
        <cc:permits
           rdf:resource="http://web.resource.org/cc/DerivativeWorks" />
      </cc:License>
    </rdf:RDF>
  </metadata>
  <g
     inkscape:label="Livello 1"
     inkscape:groupmode="layer"
     id="layer1">
    <g
       id="g2329"
       transform="translate(-70.7716,-210.1117)">
      <path
         id="path2100"
         d="M 117.78042,441.56536 C 517.78042,441.56536 517.78042,441.56536 517.78042,441.56536"
         style="fill:#f0f0f0;fill-opacity:0;fill-rule:evenodd;stroke:#000000;stroke-width:8.401021px;stroke-linecap:butt;stroke-linejoin:miter;stroke-opacity:1" />
      <use
         height="1052.3622"
         width="744.09448"
         id="use2102"
         xlink:href="#path2100"
         y="0"
         x="0" />
      <use
         height="1052.3622"
         width="744.09448"
         id="use2104"
         xlink:href="#use2102"
         y="0"
         x="0" />
      <g
         id="g2319">
        <rect
           rx="41.42857"
           style="fill:#f0f0f0;fill-opacity:1;fill-rule:evenodd;stroke:#0a0a07;stroke-width:12.39999962;stroke-linecap:round;stroke-linejoin:miter;stroke-miterlimit:4;stroke-dasharray:none;stroke-dashoffset:0;stroke-opacity:1"
           id="rect2098"
           width="457.14285"
           height="605.71429"
           x="88.42366"
           y="241.04239"
           ry="41.42857" />
        <path
           style="fill:#f0f0f0;fill-opacity:0;fill-rule:evenodd;stroke:#000000;stroke-width:31.52319336px;stroke-linecap:butt;stroke-linejoin:miter;stroke-opacity:1"
           d="M 116.88946,372.52956 C 337.6386,372.52956 337.6386,372.52956 337.6386,372.52956"
           id="path2129" />
        <path
           style="fill:#f0f0f0;fill-opacity:0;fill-rule:evenodd;stroke:#000000;stroke-width:8.401021px;stroke-linecap:butt;stroke-linejoin:miter;stroke-opacity:1"
           d="M 116.99509,640.04345 C 516.99509,640.04345 516.99509,640.04345 516.99509,640.04345"
           id="path2143" />
        <use
           x="0"
           y="0"
           xlink:href="#use2102"
           id="use2147"
           width="744.09448"
           height="1052.3622"
           transform="translate(-0.785333,-7.629395e-6)" />
        <path
           style="fill:#f0f0f0;fill-opacity:0;fill-rule:evenodd;stroke:#000000;stroke-width:8.401021px;stroke-linecap:butt;stroke-linejoin:miter;stroke-opacity:1"
           d="M 116.9951,507.72476 C 516.99508,507.72476 516.99508,507.72476 516.99508,507.72476"
           id="path2313" />
        <path
           style="fill:#f0f0f0;fill-opacity:0;fill-rule:evenodd;stroke:#000000;stroke-width:8.401021px;stroke-linecap:butt;stroke-linejoin:miter;stroke-opacity:1"
           d="M 116.9951,573.8841 C 516.99508,573.8841 516.99508,573.8841 516.99508,573.8841"
           id="path2311" />
        <path
           style="fill:#f0f0f0;fill-opacity:0;fill-rule:evenodd;stroke:#000000;stroke-width:8.401021px;stroke-linecap:butt;stroke-linejoin:miter;stroke-opacity:1"
           d="M 116.99509,706.20282 C 516.99509,706.20282 516.99509,706.20282 516.99509,706.20282"
           id="path2315" />
        <path
           style="fill:#f0f0f0;fill-opacity:0;fill-rule:evenodd;stroke:#000000;stroke-width:8.401021px;stroke-linecap:butt;stroke-linejoin:miter;stroke-opacity:1"
           d="M 116.99509,772.36218 C 516.99509,772.36218 516.99509,772.36218 516.99509,772.36218"
           id="path2317" />
      </g>
      <use
         height="1052.3622"
         width="744.09448"
         id="use2145"
         xlink:href="#path2100"
         y="0"
         x="0" />
      <g
         id="g4582">
        <path
           style="fill:#000000;fill-opacity:1;fill-rule:evenodd;stroke:none;stroke-width:49.52399826;stroke-linecap:butt;stroke-linejoin:miter;stroke-miterlimit:4;stroke-opacity:1"
           d="M 165.90116,344.33929 L 141.04021,405.29911 C 269.09432,405.29912 335.19922,405.29911 356.02531,405.29911 C 360.90184,405.29911 363.74864,405.29911 365.66929,405.29911 C 365.79927,405.29911 366.20274,405.29911 366.32189,405.29911 C 367.07293,405.29911 368.52658,405.29911 368.67851,405.29911 C 368.67928,405.29911 368.67955,344.33929 368.67851,344.33929 C 368.52721,344.33929 367.07309,344.33929 366.32189,344.33929 C 366.20274,344.33929 365.79927,344.33929 365.66929,344.33929 C 363.74864,344.33929 360.90184,344.33929 356.02531,344.33929 C 335.19922,344.33929 293.95528,344.3393 165.90116,344.33929 z "
           id="path2223"
           sodipodi:nodetypes="ccssssssssc" />
        <path
           style="fill:#000000;fill-opacity:1;fill-rule:evenodd;stroke:none;stroke-width:18.65099907;stroke-linecap:butt;stroke-linejoin:miter;stroke-miterlimit:4;stroke-dasharray:none;stroke-opacity:1"
           d="M 146.21878,430.24554 L 146.21878,454.61608 C 546.21879,454.61608 443.2665,454.61608 486.21878,454.61608 L 486.21878,430.24554 C 443.2665,430.24554 546.21879,430.24554 146.21878,430.24554 z "
           id="path2227" />
        <path
           style="fill:#f0f0f0;fill-opacity:0;fill-rule:evenodd;stroke:#000000;stroke-width:21.31752586;stroke-linecap:butt;stroke-linejoin:miter;stroke-miterlimit:4;stroke-dasharray:none;stroke-opacity:1"
           d="M 161.71417,508.64791 C 561.71414,508.64791 468.857,508.64791 468.857,508.64791"
           id="path2980"
           sodipodi:nodetypes="cc" />
        <path
           style="fill:#000000;fill-opacity:1;fill-rule:evenodd;stroke:none;stroke-width:18.65099907;stroke-linecap:butt;stroke-linejoin:miter;stroke-miterlimit:4;stroke-dasharray:none;stroke-opacity:1"
           d="M 205.71878,563.90179 L 230.00449,583.98661 C 391.35176,583.98661 380.83174,583.98661 399.9911,583.98661 C 404.58096,583.98661 423.15234,563.90179 418.56253,563.90179 C 399.40341,563.90179 367.06605,563.90179 205.71878,563.90179 z "
           id="path2982"
           sodipodi:nodetypes="ccssc" />
      </g>
      <g
         id="g3017"
         style="opacity:1;stroke:none;stroke-opacity:1;fill:#000000;fill-opacity:0.39215687">
        <path
           style="fill:#000000;fill-opacity:0.39215687;fill-rule:evenodd;stroke:none;stroke-width:12.39999961999999911;stroke-linecap:round;stroke-linejoin:miter;stroke-miterlimit:4;stroke-dashoffset:0;stroke-opacity:1"
           d="M 437.03327,536.57443 C 450.37897,517.90201 469.50987,522.91159 488.18227,536.25732 L 866.74217,792.77764 C 885.41457,806.12334 889.70277,831.89964 876.35707,850.57214 C 863.01137,869.24454 837.23497,873.53284 818.56257,860.18714 L 452.63057,581.08526 C 433.95807,567.73953 423.68747,555.24685 437.03327,536.57443 z "
           id="rect2035"
           sodipodi:nodetypes="cccsccc" />
        <g
           id="g3011"
           style="stroke:none;stroke-opacity:1;fill:#000000;fill-opacity:0.39215687">
          <path
             transform="translate(-95.03801,-151.0122)"
             d="m 582.85715,582.36218 c 0,95.46637 -77.39078,172.85715 -172.85715,172.85715 -95.46637,0 -172.85715,-77.39078 -172.85715,-172.85715 0,-95.46636 77.39078,-172.85714 172.85715,-172.85714 95.46637,0 172.85715,77.39078 172.85715,172.85714 z"
             sodipodi:ry="172.85715"
             sodipodi:rx="172.85715"
             sodipodi:cy="582.36218"
             sodipodi:cx="410"
             id="path1306"
             style="opacity:1;fill:#000000;fill-opacity:0.39215687;fill-rule:evenodd;stroke:none;stroke-width:12.39999961999999911;stroke-linecap:round;stroke-linejoin:miter;stroke-miterlimit:4;stroke-dasharray:none;stroke-dashoffset:0;stroke-opacity:1"
             sodipodi:type="arc" />
          <path
             sodipodi:nodetypes="cscssc"
             id="path2038"
             d="M 389.11949,274.86274 C 402.97759,299.9685 517.87039,515.27737 288.14929,545.94568 C 211.78389,556.14064 189.41359,539.30745 180.31909,537.94708 C 208.65529,579.83491 265.02089,601.34042 315.75119,601.34043 C 401.44989,601.34043 488.12389,515.43947 488.12389,420.137 C 488.12389,350.59184 442.44089,302.20626 389.11949,274.86274 z "
             style="fill:#000000;fill-opacity:0.39215687;fill-rule:evenodd;stroke:none;stroke-width:12.39999961999999911;stroke-linecap:round;stroke-linejoin:miter;stroke-miterlimit:4;stroke-dashoffset:0;stroke-opacity:1" />
          <path
             transform="translate(-96.46651,-149.5837)"
             d="m 582.85715,582.36218 c 0,95.46637 -77.39078,172.85715 -172.85715,172.85715 -95.46637,0 -172.85715,-77.39078 -172.85715,-172.85715 0,-95.46636 77.39078,-172.85714 172.85715,-172.85714 95.46637,0 172.85715,77.39078 172.85715,172.85714 z"
             sodipodi:ry="172.85715"
             sodipodi:rx="172.85715"
             sodipodi:cy="582.36218"
             sodipodi:cx="410"
             id="path2077"
             style="opacity:1;fill:#000000;fill-opacity:0.39215687;fill-rule:evenodd;stroke:none;stroke-width:12.39999961999999911;stroke-linecap:round;stroke-linejoin:miter;stroke-miterlimit:4;stroke-dasharray:none;stroke-dashoffset:0;stroke-opacity:1"
             sodipodi:type="arc" />
          <path
             id="path2079"
             d="M 197.99889,509.79825 C 190.90259,465.17152 200.11939,419.24838 227.90529,381.6644 C 264.57979,332.05745 324.53219,308.8469 385.30179,314.32334 C 382.00789,311.21871 378.51609,308.25733 374.79719,305.50793 C 319.63059,264.7232 238.71429,280.51869 194.17929,340.75804 C 154.23869,394.78273 157.19859,466.1971 197.99889,509.79825 z "
             style="opacity:1;fill:#000000;fill-opacity:0.39215687;fill-rule:evenodd;stroke:none;stroke-width:12.39999961999999911;stroke-linecap:round;stroke-linejoin:miter;stroke-miterlimit:4;stroke-dasharray:none;stroke-dashoffset:0;stroke-opacity:1" />
        </g>
      </g>
    </g>
  </g>
</svg>
